<svg width="426" height="49" viewBox="0 0 426 49" fill="none" xmlns="http://www.w3.org/2000/svg">
<path d="M21.6 2.2C25.44 2.2 28.9173 2.69066 32.032 3.672C35.1893 4.61066 37.8773 6.01867 40.096 7.896C42.3573 9.77333 44.1067 12.12 45.344 14.936C46.5813 17.7093 47.2 20.9307 47.2 24.6C47.2 28.2693 46.5813 31.512 45.344 34.328C44.1067 37.1013 42.3573 39.4267 40.096 41.304C37.8773 43.1813 35.1893 44.6107 32.032 45.592C28.9173 46.5307 25.44 47 21.6 47H0.48V2.2H21.6ZM9.76 7V42.2H21.6C23.776 42.2 25.8027 41.88 27.68 41.24C29.6 40.5573 31.264 39.512 32.672 38.104C34.08 36.6533 35.1893 34.8187 36 32.6C36.8533 30.3813 37.28 27.7147 37.28 24.6C37.28 21.4853 36.8533 18.8187 36 16.6C35.1893 14.3813 34.08 12.568 32.672 11.16C31.264 9.70933 29.6 8.664 27.68 8.024C25.8027 7.34133 23.776 7 21.6 7H9.76ZM64.1325 31.32H83.9725L74.3725 7.64H73.7325L64.1325 31.32ZM81.4125 2.2L99.6525 47H90.4365L86.2125 36.12H61.8925L57.6685 47H48.4525L66.6925 2.2H81.4125ZM139.668 7H122.388V47H113.108V7H95.8275V2.2H139.668V7ZM151.508 31.32H171.347L161.748 7.64H161.108L151.508 31.32ZM168.788 2.2L187.028 47H177.812L173.588 36.12H149.268L145.044 47H135.828L154.068 2.2H168.788ZM233.768 35.16C233.768 36.9947 233.384 38.7227 232.616 40.344C231.848 41.9227 230.589 43.3093 228.84 44.504C227.133 45.656 224.893 46.5733 222.12 47.256C219.389 47.9387 216.018 48.28 212.008 48.28C209.746 48.28 207.528 48.1093 205.352 47.768C203.218 47.4267 201.17 46.936 199.208 46.296C197.288 45.656 195.496 44.888 193.832 43.992C192.21 43.0533 190.802 42.0293 189.608 40.92L192.808 37.08C195.24 39.1707 198.077 40.7707 201.32 41.88C204.562 42.9467 208.125 43.48 212.008 43.48C216.317 43.48 219.368 42.8827 221.16 41.688C222.951 40.4933 223.847 38.8507 223.847 36.76C223.847 35.1387 223.144 33.7733 221.736 32.664C220.328 31.5547 217.938 30.4667 214.568 29.4L202.408 25.56C198.397 24.28 195.368 22.6587 193.32 20.696C191.272 18.6907 190.248 16.152 190.248 13.08C190.248 11.5013 190.61 9.98667 191.336 8.536C192.104 7.04266 193.277 5.74133 194.856 4.632C196.434 3.48 198.44 2.584 200.872 1.944C203.346 1.26133 206.312 0.919998 209.768 0.919998C211.858 0.919998 213.928 1.09067 215.976 1.432C218.066 1.77333 220.05 2.264 221.928 2.904C223.848 3.544 225.618 4.33333 227.24 5.272C228.904 6.168 230.333 7.17066 231.528 8.28L228.328 12.12C225.896 10.0293 223.165 8.45066 220.136 7.384C217.106 6.27466 213.65 5.72 209.768 5.72C206.568 5.72 204.157 6.27466 202.536 7.384C200.957 8.49333 200.168 9.85866 200.168 11.48C200.168 12.376 200.317 13.1653 200.616 13.848C200.914 14.488 201.405 15.1067 202.088 15.704C202.813 16.2587 203.752 16.792 204.904 17.304C206.056 17.7733 207.485 18.2853 209.192 18.84L221.288 22.68C225.17 23.9173 228.221 25.5387 230.44 27.544C232.658 29.5493 233.768 32.088 233.768 35.16ZM263.208 2.2C266.407 2.2 269.266 2.56266 271.784 3.288C274.344 3.97066 276.498 4.99466 278.248 6.36C279.997 7.68266 281.341 9.32533 282.28 11.288C283.218 13.208 283.688 15.4053 283.688 17.88C283.688 20.3547 283.218 22.5733 282.28 24.536C281.341 26.456 279.997 28.0987 278.248 29.464C276.498 30.7867 274.344 31.8107 271.784 32.536C269.266 33.2187 266.407 33.56 263.208 33.56H249.448V47H240.168V2.2H263.208ZM249.448 7V28.76H263.208C266.578 28.76 269.181 27.8853 271.016 26.136C272.893 24.344 273.832 21.592 273.832 17.88C273.832 14.168 272.893 11.4373 271.016 9.688C269.181 7.896 266.578 7 263.208 7H249.448ZM298.07 31.32H317.91L308.31 7.64H307.67L298.07 31.32ZM315.35 2.2L333.59 47H324.374L320.15 36.12H295.83L291.606 47H282.39L300.63 2.2H315.35ZM361.143 43.48C364.044 43.48 366.817 42.9893 369.463 42.008C372.151 40.984 374.711 39.3413 377.143 37.08L380.343 40.92C377.911 43.1813 374.967 44.9733 371.511 46.296C368.055 47.6187 364.385 48.28 360.503 48.28C356.492 48.28 352.865 47.768 349.623 46.744C346.423 45.72 343.671 44.2053 341.367 42.2C339.105 40.1947 337.356 37.72 336.119 34.776C334.881 31.832 334.263 28.44 334.263 24.6C334.263 20.76 334.86 17.368 336.055 14.424C337.292 11.48 339.02 9.00533 341.239 7C343.5 4.99466 346.209 3.48 349.367 2.456C352.524 1.432 356.023 0.919998 359.863 0.919998C363.745 0.919998 367.415 1.58133 370.871 2.904C374.327 4.22666 377.271 6.01866 379.703 8.28L376.503 12.12C374.071 9.85866 371.511 8.23733 368.823 7.256C366.177 6.232 363.404 5.72 360.503 5.72C358.199 5.72 356.044 6.104 354.039 6.872C352.033 7.59733 350.305 8.728 348.855 10.264C347.404 11.8 346.252 13.7627 345.399 16.152C344.588 18.4987 344.183 21.3147 344.183 24.6C344.183 27.8853 344.588 30.7227 345.399 33.112C346.252 35.4587 347.425 37.4 348.919 38.936C350.455 40.472 352.247 41.624 354.295 42.392C356.385 43.1173 358.668 43.48 361.143 43.48ZM395.385 7V21.72H418.745V26.52H395.385V42.2H425.145V47H386.105V2.2H425.145V7H395.385Z" fill="#096EB7"/>
</svg>
